<mxfile host="app.diagrams.net" modified="2022-08-30T01:56:46.042Z" agent="5.0 (Macintosh; Intel Mac OS X 10_14_6) AppleWebKit/537.36 (KHTML, like Gecko) Chrome/104.0.0.0 Safari/537.36" etag="GcwlIHd2Io8qTqPE1_Ri" version="20.2.7" type="github">
  <diagram id="j7a0BHH5y9aBOZwctXzQ" name="第 1 页">
    <mxGraphModel dx="1430" dy="745" grid="0" gridSize="10" guides="1" tooltips="1" connect="1" arrows="1" fold="1" page="1" pageScale="1" pageWidth="1169" pageHeight="827" math="0" shadow="0">
      <root>
        <mxCell id="0" />
        <mxCell id="1" parent="0" />
        <mxCell id="UxxawNcnYSBwmgiBSXnW-47" value="" style="rounded=0;whiteSpace=wrap;html=1;dashed=1;" parent="1" vertex="1">
          <mxGeometry x="115" y="1380" width="349" height="74" as="geometry" />
        </mxCell>
        <mxCell id="jmlHy1M2BOXDZ87dlyob-1" value="bind/listen" style="rounded=1;whiteSpace=wrap;html=1;" parent="1" vertex="1">
          <mxGeometry x="270" y="200" width="120" height="30" as="geometry" />
        </mxCell>
        <mxCell id="jmlHy1M2BOXDZ87dlyob-2" value="epoll wait" style="rounded=1;whiteSpace=wrap;html=1;" parent="1" vertex="1">
          <mxGeometry x="270" y="260" width="120" height="30" as="geometry" />
        </mxCell>
        <mxCell id="jmlHy1M2BOXDZ87dlyob-3" value="FD" style="rounded=0;whiteSpace=wrap;html=1;" parent="1" vertex="1">
          <mxGeometry x="170" y="330" width="70" height="30" as="geometry" />
        </mxCell>
        <mxCell id="jmlHy1M2BOXDZ87dlyob-4" value="FD" style="rounded=0;whiteSpace=wrap;html=1;" parent="1" vertex="1">
          <mxGeometry x="295" y="330" width="70" height="30" as="geometry" />
        </mxCell>
        <mxCell id="jmlHy1M2BOXDZ87dlyob-5" value="FD" style="rounded=0;whiteSpace=wrap;html=1;" parent="1" vertex="1">
          <mxGeometry x="410" y="330" width="70" height="30" as="geometry" />
        </mxCell>
        <mxCell id="jmlHy1M2BOXDZ87dlyob-6" value="" style="endArrow=classic;html=1;rounded=0;entryX=0.5;entryY=0;entryDx=0;entryDy=0;" parent="1" target="jmlHy1M2BOXDZ87dlyob-3" edge="1">
          <mxGeometry width="50" height="50" relative="1" as="geometry">
            <mxPoint x="330" y="290" as="sourcePoint" />
            <mxPoint x="150" y="320" as="targetPoint" />
          </mxGeometry>
        </mxCell>
        <mxCell id="jmlHy1M2BOXDZ87dlyob-7" value="" style="endArrow=classic;html=1;rounded=0;entryX=0.5;entryY=0;entryDx=0;entryDy=0;" parent="1" target="jmlHy1M2BOXDZ87dlyob-4" edge="1">
          <mxGeometry width="50" height="50" relative="1" as="geometry">
            <mxPoint x="330" y="290" as="sourcePoint" />
            <mxPoint x="400" y="440" as="targetPoint" />
          </mxGeometry>
        </mxCell>
        <mxCell id="jmlHy1M2BOXDZ87dlyob-8" value="" style="endArrow=classic;html=1;rounded=0;exitX=0.5;exitY=1;exitDx=0;exitDy=0;entryX=0.5;entryY=0;entryDx=0;entryDy=0;" parent="1" source="jmlHy1M2BOXDZ87dlyob-2" target="jmlHy1M2BOXDZ87dlyob-5" edge="1">
          <mxGeometry width="50" height="50" relative="1" as="geometry">
            <mxPoint x="400" y="460" as="sourcePoint" />
            <mxPoint x="450" y="410" as="targetPoint" />
          </mxGeometry>
        </mxCell>
        <mxCell id="jmlHy1M2BOXDZ87dlyob-9" value="AcceptEvent" style="rounded=0;whiteSpace=wrap;html=1;" parent="1" vertex="1">
          <mxGeometry x="157.5" y="388" width="92.5" height="32" as="geometry" />
        </mxCell>
        <mxCell id="jmlHy1M2BOXDZ87dlyob-10" value="ReadEvent" style="rounded=0;whiteSpace=wrap;html=1;" parent="1" vertex="1">
          <mxGeometry x="283.75" y="388" width="92.5" height="32" as="geometry" />
        </mxCell>
        <mxCell id="jmlHy1M2BOXDZ87dlyob-11" value="WriteEvent" style="rounded=0;whiteSpace=wrap;html=1;" parent="1" vertex="1">
          <mxGeometry x="410" y="388" width="92.5" height="32" as="geometry" />
        </mxCell>
        <mxCell id="jmlHy1M2BOXDZ87dlyob-14" value="" style="shape=process;whiteSpace=wrap;html=1;backgroundOutline=1;" parent="1" vertex="1">
          <mxGeometry x="300" y="470" width="50" height="100" as="geometry" />
        </mxCell>
        <mxCell id="jmlHy1M2BOXDZ87dlyob-15" value="" style="endArrow=classic;html=1;rounded=0;exitX=0.438;exitY=1;exitDx=0;exitDy=0;exitPerimeter=0;entryX=0;entryY=0;entryDx=0;entryDy=0;" parent="1" source="jmlHy1M2BOXDZ87dlyob-9" target="jmlHy1M2BOXDZ87dlyob-14" edge="1">
          <mxGeometry width="50" height="50" relative="1" as="geometry">
            <mxPoint x="200" y="500" as="sourcePoint" />
            <mxPoint x="250" y="450" as="targetPoint" />
          </mxGeometry>
        </mxCell>
        <mxCell id="jmlHy1M2BOXDZ87dlyob-16" value="" style="endArrow=classic;html=1;rounded=0;exitX=0.435;exitY=1;exitDx=0;exitDy=0;exitPerimeter=0;entryX=0.5;entryY=0;entryDx=0;entryDy=0;" parent="1" source="jmlHy1M2BOXDZ87dlyob-10" target="jmlHy1M2BOXDZ87dlyob-14" edge="1">
          <mxGeometry width="50" height="50" relative="1" as="geometry">
            <mxPoint x="390" y="520" as="sourcePoint" />
            <mxPoint x="440" y="470" as="targetPoint" />
          </mxGeometry>
        </mxCell>
        <mxCell id="jmlHy1M2BOXDZ87dlyob-17" value="" style="endArrow=classic;html=1;rounded=0;exitX=0.5;exitY=1;exitDx=0;exitDy=0;entryX=1;entryY=0;entryDx=0;entryDy=0;" parent="1" source="jmlHy1M2BOXDZ87dlyob-11" target="jmlHy1M2BOXDZ87dlyob-14" edge="1">
          <mxGeometry width="50" height="50" relative="1" as="geometry">
            <mxPoint x="450" y="520" as="sourcePoint" />
            <mxPoint x="500" y="470" as="targetPoint" />
          </mxGeometry>
        </mxCell>
        <mxCell id="jmlHy1M2BOXDZ87dlyob-18" value="" style="rounded=1;whiteSpace=wrap;html=1;dashed=1;" parent="1" vertex="1">
          <mxGeometry x="383" y="590" width="77" height="90" as="geometry" />
        </mxCell>
        <mxCell id="jmlHy1M2BOXDZ87dlyob-19" value="accept" style="rounded=1;whiteSpace=wrap;html=1;dashed=1;" parent="1" vertex="1">
          <mxGeometry x="390" y="590" width="65" height="20" as="geometry" />
        </mxCell>
        <mxCell id="jmlHy1M2BOXDZ87dlyob-20" value="put" style="rounded=1;whiteSpace=wrap;html=1;dashed=1;" parent="1" vertex="1">
          <mxGeometry x="390" y="620" width="65" height="20" as="geometry" />
        </mxCell>
        <mxCell id="jmlHy1M2BOXDZ87dlyob-21" value="get" style="rounded=1;whiteSpace=wrap;html=1;dashed=1;" parent="1" vertex="1">
          <mxGeometry x="390" y="650" width="65" height="20" as="geometry" />
        </mxCell>
        <mxCell id="jmlHy1M2BOXDZ87dlyob-22" value="" style="endArrow=classic;html=1;rounded=0;entryX=-0.052;entryY=0.133;entryDx=0;entryDy=0;entryPerimeter=0;exitX=1;exitY=1;exitDx=0;exitDy=0;" parent="1" source="jmlHy1M2BOXDZ87dlyob-14" target="jmlHy1M2BOXDZ87dlyob-18" edge="1">
          <mxGeometry width="50" height="50" relative="1" as="geometry">
            <mxPoint x="270" y="640" as="sourcePoint" />
            <mxPoint x="320" y="590" as="targetPoint" />
          </mxGeometry>
        </mxCell>
        <mxCell id="jmlHy1M2BOXDZ87dlyob-23" value="" style="endArrow=classic;html=1;rounded=0;exitX=1;exitY=1;exitDx=0;exitDy=0;" parent="1" source="jmlHy1M2BOXDZ87dlyob-14" edge="1">
          <mxGeometry width="50" height="50" relative="1" as="geometry">
            <mxPoint x="310" y="670" as="sourcePoint" />
            <mxPoint x="380" y="630" as="targetPoint" />
          </mxGeometry>
        </mxCell>
        <mxCell id="jmlHy1M2BOXDZ87dlyob-24" value="" style="endArrow=classic;html=1;rounded=0;entryX=0;entryY=0.75;entryDx=0;entryDy=0;" parent="1" target="jmlHy1M2BOXDZ87dlyob-18" edge="1">
          <mxGeometry width="50" height="50" relative="1" as="geometry">
            <mxPoint x="350" y="570" as="sourcePoint" />
            <mxPoint x="320" y="630" as="targetPoint" />
          </mxGeometry>
        </mxCell>
        <mxCell id="jmlHy1M2BOXDZ87dlyob-25" value="return" style="text;html=1;strokeColor=none;fillColor=none;align=center;verticalAlign=middle;whiteSpace=wrap;rounded=0;dashed=1;" parent="1" vertex="1">
          <mxGeometry x="392" y="690" width="58" height="20" as="geometry" />
        </mxCell>
        <mxCell id="jmlHy1M2BOXDZ87dlyob-26" value="事件队列" style="text;html=1;strokeColor=none;fillColor=none;align=center;verticalAlign=middle;whiteSpace=wrap;rounded=0;dashed=1;" parent="1" vertex="1">
          <mxGeometry x="240" y="505" width="60" height="30" as="geometry" />
        </mxCell>
        <mxCell id="UxxawNcnYSBwmgiBSXnW-2" value="主库" style="rounded=0;whiteSpace=wrap;html=1;" parent="1" vertex="1">
          <mxGeometry x="618" y="489" width="146" height="40" as="geometry" />
        </mxCell>
        <mxCell id="UxxawNcnYSBwmgiBSXnW-3" value="client buffer" style="rounded=0;whiteSpace=wrap;html=1;" parent="1" vertex="1">
          <mxGeometry x="744" y="499" width="70" height="20" as="geometry" />
        </mxCell>
        <mxCell id="UxxawNcnYSBwmgiBSXnW-4" value="从库" style="rounded=0;whiteSpace=wrap;html=1;" parent="1" vertex="1">
          <mxGeometry x="904" y="489" width="146" height="40" as="geometry" />
        </mxCell>
        <mxCell id="UxxawNcnYSBwmgiBSXnW-5" value="" style="endArrow=classic;startArrow=classic;html=1;rounded=0;entryX=0;entryY=0.5;entryDx=0;entryDy=0;exitX=1;exitY=0.5;exitDx=0;exitDy=0;" parent="1" source="UxxawNcnYSBwmgiBSXnW-3" target="UxxawNcnYSBwmgiBSXnW-4" edge="1">
          <mxGeometry width="50" height="50" relative="1" as="geometry">
            <mxPoint x="834" y="569" as="sourcePoint" />
            <mxPoint x="884" y="519" as="targetPoint" />
          </mxGeometry>
        </mxCell>
        <mxCell id="UxxawNcnYSBwmgiBSXnW-6" value="" style="endArrow=classic;html=1;rounded=0;entryX=0.614;entryY=1;entryDx=0;entryDy=0;entryPerimeter=0;" parent="1" target="UxxawNcnYSBwmgiBSXnW-3" edge="1">
          <mxGeometry width="50" height="50" relative="1" as="geometry">
            <mxPoint x="794" y="559" as="sourcePoint" />
            <mxPoint x="854" y="549" as="targetPoint" />
          </mxGeometry>
        </mxCell>
        <mxCell id="UxxawNcnYSBwmgiBSXnW-7" value="replication buffer" style="text;html=1;strokeColor=none;fillColor=none;align=center;verticalAlign=middle;whiteSpace=wrap;rounded=0;" parent="1" vertex="1">
          <mxGeometry x="752" y="559" width="94" height="20" as="geometry" />
        </mxCell>
        <mxCell id="UxxawNcnYSBwmgiBSXnW-10" value="" style="edgeStyle=orthogonalEdgeStyle;rounded=0;orthogonalLoop=1;jettySize=auto;html=1;" parent="1" source="UxxawNcnYSBwmgiBSXnW-8" target="UxxawNcnYSBwmgiBSXnW-9" edge="1">
          <mxGeometry relative="1" as="geometry" />
        </mxCell>
        <mxCell id="UxxawNcnYSBwmgiBSXnW-8" value="ping响应超时" style="rounded=0;whiteSpace=wrap;html=1;" parent="1" vertex="1">
          <mxGeometry x="166" y="855" width="98" height="29" as="geometry" />
        </mxCell>
        <mxCell id="UxxawNcnYSBwmgiBSXnW-11" style="edgeStyle=orthogonalEdgeStyle;rounded=0;orthogonalLoop=1;jettySize=auto;html=1;exitX=1;exitY=0.5;exitDx=0;exitDy=0;entryX=0;entryY=0.5;entryDx=0;entryDy=0;" parent="1" source="UxxawNcnYSBwmgiBSXnW-9" target="UxxawNcnYSBwmgiBSXnW-12" edge="1">
          <mxGeometry relative="1" as="geometry">
            <mxPoint x="286" y="944" as="targetPoint" />
          </mxGeometry>
        </mxCell>
        <mxCell id="UxxawNcnYSBwmgiBSXnW-13" style="edgeStyle=orthogonalEdgeStyle;rounded=0;orthogonalLoop=1;jettySize=auto;html=1;" parent="1" source="UxxawNcnYSBwmgiBSXnW-9" edge="1">
          <mxGeometry relative="1" as="geometry">
            <mxPoint x="215" y="1022" as="targetPoint" />
          </mxGeometry>
        </mxCell>
        <mxCell id="UxxawNcnYSBwmgiBSXnW-9" value="主库还是从库" style="rhombus;whiteSpace=wrap;html=1;" parent="1" vertex="1">
          <mxGeometry x="183.5" y="914" width="63" height="59" as="geometry" />
        </mxCell>
        <mxCell id="UxxawNcnYSBwmgiBSXnW-12" value="认定为下线" style="rounded=0;whiteSpace=wrap;html=1;" parent="1" vertex="1">
          <mxGeometry x="340" y="928.5" width="70" height="30" as="geometry" />
        </mxCell>
        <mxCell id="UxxawNcnYSBwmgiBSXnW-18" value="" style="edgeStyle=orthogonalEdgeStyle;rounded=0;orthogonalLoop=1;jettySize=auto;html=1;" parent="1" source="UxxawNcnYSBwmgiBSXnW-14" target="UxxawNcnYSBwmgiBSXnW-17" edge="1">
          <mxGeometry relative="1" as="geometry" />
        </mxCell>
        <mxCell id="UxxawNcnYSBwmgiBSXnW-14" value="主观下线" style="rounded=0;whiteSpace=wrap;html=1;" parent="1" vertex="1">
          <mxGeometry x="156" y="1022" width="114" height="34" as="geometry" />
        </mxCell>
        <mxCell id="UxxawNcnYSBwmgiBSXnW-15" value="从库" style="text;html=1;strokeColor=none;fillColor=none;align=center;verticalAlign=middle;whiteSpace=wrap;rounded=0;" parent="1" vertex="1">
          <mxGeometry x="260" y="921" width="60" height="30" as="geometry" />
        </mxCell>
        <mxCell id="UxxawNcnYSBwmgiBSXnW-16" value="主库" style="text;html=1;strokeColor=none;fillColor=none;align=center;verticalAlign=middle;whiteSpace=wrap;rounded=0;" parent="1" vertex="1">
          <mxGeometry x="170" y="979" width="60" height="30" as="geometry" />
        </mxCell>
        <mxCell id="UxxawNcnYSBwmgiBSXnW-20" value="" style="edgeStyle=orthogonalEdgeStyle;rounded=0;orthogonalLoop=1;jettySize=auto;html=1;" parent="1" source="UxxawNcnYSBwmgiBSXnW-17" target="UxxawNcnYSBwmgiBSXnW-19" edge="1">
          <mxGeometry relative="1" as="geometry" />
        </mxCell>
        <mxCell id="UxxawNcnYSBwmgiBSXnW-17" value="如果多个哨兵实例都认为主库下线了" style="whiteSpace=wrap;html=1;rounded=0;" parent="1" vertex="1">
          <mxGeometry x="152" y="1089" width="123" height="33" as="geometry" />
        </mxCell>
        <mxCell id="UxxawNcnYSBwmgiBSXnW-19" value="客观下线" style="whiteSpace=wrap;html=1;rounded=0;" parent="1" vertex="1">
          <mxGeometry x="151.5" y="1155" width="123" height="33" as="geometry" />
        </mxCell>
        <mxCell id="UxxawNcnYSBwmgiBSXnW-24" value="" style="edgeStyle=orthogonalEdgeStyle;rounded=0;orthogonalLoop=1;jettySize=auto;html=1;" parent="1" source="UxxawNcnYSBwmgiBSXnW-22" target="UxxawNcnYSBwmgiBSXnW-23" edge="1">
          <mxGeometry relative="1" as="geometry" />
        </mxCell>
        <mxCell id="UxxawNcnYSBwmgiBSXnW-22" value="筛选" style="rounded=0;whiteSpace=wrap;html=1;" parent="1" vertex="1">
          <mxGeometry x="618" y="956" width="113" height="34" as="geometry" />
        </mxCell>
        <mxCell id="UxxawNcnYSBwmgiBSXnW-23" value="打分" style="rounded=0;whiteSpace=wrap;html=1;" parent="1" vertex="1">
          <mxGeometry x="618" y="1088" width="113" height="34" as="geometry" />
        </mxCell>
        <mxCell id="UxxawNcnYSBwmgiBSXnW-25" value="" style="endArrow=classic;html=1;rounded=0;" parent="1" edge="1">
          <mxGeometry width="50" height="50" relative="1" as="geometry">
            <mxPoint x="738" y="971" as="sourcePoint" />
            <mxPoint x="788" y="921" as="targetPoint" />
          </mxGeometry>
        </mxCell>
        <mxCell id="UxxawNcnYSBwmgiBSXnW-26" value="" style="endArrow=classic;html=1;rounded=0;" parent="1" edge="1">
          <mxGeometry width="50" height="50" relative="1" as="geometry">
            <mxPoint x="740" y="984" as="sourcePoint" />
            <mxPoint x="799" y="1019" as="targetPoint" />
          </mxGeometry>
        </mxCell>
        <mxCell id="UxxawNcnYSBwmgiBSXnW-27" value="在线" style="text;html=1;strokeColor=none;fillColor=none;align=center;verticalAlign=middle;whiteSpace=wrap;rounded=0;" parent="1" vertex="1">
          <mxGeometry x="778" y="909" width="60" height="30" as="geometry" />
        </mxCell>
        <mxCell id="UxxawNcnYSBwmgiBSXnW-28" value="历史网络状态良好" style="text;html=1;strokeColor=none;fillColor=none;align=center;verticalAlign=middle;whiteSpace=wrap;rounded=0;" parent="1" vertex="1">
          <mxGeometry x="798" y="1005" width="105" height="29" as="geometry" />
        </mxCell>
        <mxCell id="UxxawNcnYSBwmgiBSXnW-30" value="" style="endArrow=classic;html=1;rounded=0;" parent="1" edge="1">
          <mxGeometry width="50" height="50" relative="1" as="geometry">
            <mxPoint x="736" y="1098" as="sourcePoint" />
            <mxPoint x="811" y="1068" as="targetPoint" />
          </mxGeometry>
        </mxCell>
        <mxCell id="UxxawNcnYSBwmgiBSXnW-31" value="" style="endArrow=classic;html=1;rounded=0;" parent="1" edge="1">
          <mxGeometry width="50" height="50" relative="1" as="geometry">
            <mxPoint x="737" y="1105" as="sourcePoint" />
            <mxPoint x="821" y="1105" as="targetPoint" />
          </mxGeometry>
        </mxCell>
        <mxCell id="UxxawNcnYSBwmgiBSXnW-32" value="" style="endArrow=classic;html=1;rounded=0;" parent="1" edge="1">
          <mxGeometry width="50" height="50" relative="1" as="geometry">
            <mxPoint x="737" y="1111" as="sourcePoint" />
            <mxPoint x="814" y="1147" as="targetPoint" />
          </mxGeometry>
        </mxCell>
        <mxCell id="UxxawNcnYSBwmgiBSXnW-33" value="从库优先级" style="text;html=1;strokeColor=none;fillColor=none;align=center;verticalAlign=middle;whiteSpace=wrap;rounded=0;" parent="1" vertex="1">
          <mxGeometry x="821" y="1056" width="89" height="27" as="geometry" />
        </mxCell>
        <mxCell id="UxxawNcnYSBwmgiBSXnW-34" value="从库复制进度" style="text;html=1;strokeColor=none;fillColor=none;align=center;verticalAlign=middle;whiteSpace=wrap;rounded=0;" parent="1" vertex="1">
          <mxGeometry x="827" y="1089" width="91" height="32" as="geometry" />
        </mxCell>
        <mxCell id="UxxawNcnYSBwmgiBSXnW-36" value="从库ID号" style="text;html=1;strokeColor=none;fillColor=none;align=center;verticalAlign=middle;whiteSpace=wrap;rounded=0;" parent="1" vertex="1">
          <mxGeometry x="825" y="1127" width="91" height="32" as="geometry" />
        </mxCell>
        <mxCell id="UxxawNcnYSBwmgiBSXnW-37" value="" style="rounded=0;whiteSpace=wrap;html=1;" parent="1" vertex="1">
          <mxGeometry x="230" y="1303" width="120" height="60" as="geometry" />
        </mxCell>
        <mxCell id="UxxawNcnYSBwmgiBSXnW-38" value="__sentinel__:hello" style="rounded=1;whiteSpace=wrap;html=1;" parent="1" vertex="1">
          <mxGeometry x="241.5" y="1321" width="97" height="30" as="geometry" />
        </mxCell>
        <mxCell id="UxxawNcnYSBwmgiBSXnW-39" value="哨兵1" style="rounded=0;whiteSpace=wrap;html=1;" parent="1" vertex="1">
          <mxGeometry x="130" y="1392" width="90" height="41" as="geometry" />
        </mxCell>
        <mxCell id="UxxawNcnYSBwmgiBSXnW-40" value="哨兵2" style="rounded=0;whiteSpace=wrap;html=1;" parent="1" vertex="1">
          <mxGeometry x="245" y="1392" width="90" height="41" as="geometry" />
        </mxCell>
        <mxCell id="UxxawNcnYSBwmgiBSXnW-41" value="哨兵3" style="rounded=0;whiteSpace=wrap;html=1;" parent="1" vertex="1">
          <mxGeometry x="360" y="1392" width="90" height="41" as="geometry" />
        </mxCell>
        <mxCell id="UxxawNcnYSBwmgiBSXnW-42" value="" style="endArrow=classic;html=1;rounded=0;entryX=0.25;entryY=1;entryDx=0;entryDy=0;" parent="1" target="UxxawNcnYSBwmgiBSXnW-38" edge="1">
          <mxGeometry width="50" height="50" relative="1" as="geometry">
            <mxPoint x="175" y="1392" as="sourcePoint" />
            <mxPoint x="225" y="1342" as="targetPoint" />
          </mxGeometry>
        </mxCell>
        <mxCell id="UxxawNcnYSBwmgiBSXnW-43" value="" style="endArrow=classic;html=1;rounded=0;exitX=0.5;exitY=0;exitDx=0;exitDy=0;entryX=0.5;entryY=1;entryDx=0;entryDy=0;" parent="1" source="UxxawNcnYSBwmgiBSXnW-40" target="UxxawNcnYSBwmgiBSXnW-38" edge="1">
          <mxGeometry width="50" height="50" relative="1" as="geometry">
            <mxPoint x="272" y="1397" as="sourcePoint" />
            <mxPoint x="322" y="1347" as="targetPoint" />
          </mxGeometry>
        </mxCell>
        <mxCell id="UxxawNcnYSBwmgiBSXnW-44" value="" style="endArrow=classic;html=1;rounded=0;" parent="1" target="UxxawNcnYSBwmgiBSXnW-38" edge="1">
          <mxGeometry width="50" height="50" relative="1" as="geometry">
            <mxPoint x="413" y="1389" as="sourcePoint" />
            <mxPoint x="463" y="1330" as="targetPoint" />
          </mxGeometry>
        </mxCell>
        <mxCell id="UxxawNcnYSBwmgiBSXnW-45" value="pub/sub" style="text;html=1;strokeColor=none;fillColor=none;align=center;verticalAlign=middle;whiteSpace=wrap;rounded=0;" parent="1" vertex="1">
          <mxGeometry x="156" y="1355" width="60" height="30" as="geometry" />
        </mxCell>
        <mxCell id="UxxawNcnYSBwmgiBSXnW-48" value="" style="edgeStyle=orthogonalEdgeStyle;rounded=0;orthogonalLoop=1;jettySize=auto;html=1;" parent="1" source="UxxawNcnYSBwmgiBSXnW-46" edge="1">
          <mxGeometry relative="1" as="geometry">
            <mxPoint x="284" y="1458" as="targetPoint" />
          </mxGeometry>
        </mxCell>
        <mxCell id="UxxawNcnYSBwmgiBSXnW-46" value="客户端" style="rounded=0;whiteSpace=wrap;html=1;" parent="1" vertex="1">
          <mxGeometry x="241.5" y="1501" width="85" height="35" as="geometry" />
        </mxCell>
        <mxCell id="UxxawNcnYSBwmgiBSXnW-49" value="获取主库信息、主从转移进展等" style="text;html=1;strokeColor=none;fillColor=none;align=center;verticalAlign=middle;whiteSpace=wrap;rounded=0;dashed=1;" parent="1" vertex="1">
          <mxGeometry x="172" y="1468" width="109" height="21" as="geometry" />
        </mxCell>
        <mxCell id="msnr6ykoKoOmKQzoYFZ8-4" value="" style="edgeStyle=orthogonalEdgeStyle;rounded=0;orthogonalLoop=1;jettySize=auto;html=1;" edge="1" parent="1" source="msnr6ykoKoOmKQzoYFZ8-1" target="msnr6ykoKoOmKQzoYFZ8-2">
          <mxGeometry relative="1" as="geometry" />
        </mxCell>
        <mxCell id="msnr6ykoKoOmKQzoYFZ8-1" value="key" style="rounded=0;whiteSpace=wrap;html=1;" vertex="1" parent="1">
          <mxGeometry x="593" y="1375" width="92" height="41" as="geometry" />
        </mxCell>
        <mxCell id="msnr6ykoKoOmKQzoYFZ8-5" value="" style="edgeStyle=orthogonalEdgeStyle;rounded=0;orthogonalLoop=1;jettySize=auto;html=1;" edge="1" parent="1" source="msnr6ykoKoOmKQzoYFZ8-2" target="msnr6ykoKoOmKQzoYFZ8-3">
          <mxGeometry relative="1" as="geometry" />
        </mxCell>
        <mxCell id="msnr6ykoKoOmKQzoYFZ8-2" value="hash slot" style="rounded=0;whiteSpace=wrap;html=1;" vertex="1" parent="1">
          <mxGeometry x="749" y="1375" width="92" height="41" as="geometry" />
        </mxCell>
        <mxCell id="msnr6ykoKoOmKQzoYFZ8-3" value="redis 实例" style="rounded=0;whiteSpace=wrap;html=1;" vertex="1" parent="1">
          <mxGeometry x="904" y="1375" width="92" height="41" as="geometry" />
        </mxCell>
        <mxCell id="msnr6ykoKoOmKQzoYFZ8-6" value="" style="rounded=0;whiteSpace=wrap;html=1;" vertex="1" parent="1">
          <mxGeometry x="140" y="1675" width="94" height="32" as="geometry" />
        </mxCell>
        <mxCell id="msnr6ykoKoOmKQzoYFZ8-7" value="" style="rounded=0;whiteSpace=wrap;html=1;" vertex="1" parent="1">
          <mxGeometry x="140" y="1707" width="94" height="32" as="geometry" />
        </mxCell>
        <mxCell id="msnr6ykoKoOmKQzoYFZ8-8" value="" style="rounded=0;whiteSpace=wrap;html=1;" vertex="1" parent="1">
          <mxGeometry x="140" y="1739" width="94" height="32" as="geometry" />
        </mxCell>
        <mxCell id="msnr6ykoKoOmKQzoYFZ8-9" value="len(4B)" style="text;html=1;strokeColor=none;fillColor=none;align=center;verticalAlign=middle;whiteSpace=wrap;rounded=0;" vertex="1" parent="1">
          <mxGeometry x="157" y="1677" width="60" height="30" as="geometry" />
        </mxCell>
        <mxCell id="msnr6ykoKoOmKQzoYFZ8-10" value="alloc(4B)" style="text;html=1;strokeColor=none;fillColor=none;align=center;verticalAlign=middle;whiteSpace=wrap;rounded=0;" vertex="1" parent="1">
          <mxGeometry x="156" y="1709" width="60" height="30" as="geometry" />
        </mxCell>
        <mxCell id="msnr6ykoKoOmKQzoYFZ8-11" value="buf" style="text;html=1;strokeColor=none;fillColor=none;align=center;verticalAlign=middle;whiteSpace=wrap;rounded=0;" vertex="1" parent="1">
          <mxGeometry x="156" y="1741" width="60" height="30" as="geometry" />
        </mxCell>
        <mxCell id="msnr6ykoKoOmKQzoYFZ8-12" value="已用长度" style="text;html=1;strokeColor=none;fillColor=none;align=center;verticalAlign=middle;whiteSpace=wrap;rounded=0;" vertex="1" parent="1">
          <mxGeometry x="240" y="1677" width="60" height="30" as="geometry" />
        </mxCell>
        <mxCell id="msnr6ykoKoOmKQzoYFZ8-13" value="字节数据，保存实际数据" style="text;html=1;strokeColor=none;fillColor=none;align=center;verticalAlign=middle;whiteSpace=wrap;rounded=0;" vertex="1" parent="1">
          <mxGeometry x="230" y="1745" width="165" height="30" as="geometry" />
        </mxCell>
        <mxCell id="msnr6ykoKoOmKQzoYFZ8-14" value="实际分配长度" style="text;html=1;strokeColor=none;fillColor=none;align=center;verticalAlign=middle;whiteSpace=wrap;rounded=0;" vertex="1" parent="1">
          <mxGeometry x="226" y="1712.5" width="109" height="23" as="geometry" />
        </mxCell>
        <mxCell id="msnr6ykoKoOmKQzoYFZ8-15" value="" style="rounded=0;whiteSpace=wrap;html=1;" vertex="1" parent="1">
          <mxGeometry x="539" y="1680" width="102" height="34" as="geometry" />
        </mxCell>
        <mxCell id="msnr6ykoKoOmKQzoYFZ8-20" value="" style="edgeStyle=orthogonalEdgeStyle;rounded=0;orthogonalLoop=1;jettySize=auto;html=1;" edge="1" parent="1" source="msnr6ykoKoOmKQzoYFZ8-16" target="msnr6ykoKoOmKQzoYFZ8-19">
          <mxGeometry relative="1" as="geometry" />
        </mxCell>
        <mxCell id="msnr6ykoKoOmKQzoYFZ8-16" value="" style="rounded=0;whiteSpace=wrap;html=1;" vertex="1" parent="1">
          <mxGeometry x="539" y="1714" width="102" height="34" as="geometry" />
        </mxCell>
        <mxCell id="msnr6ykoKoOmKQzoYFZ8-17" value="元数据" style="text;html=1;strokeColor=none;fillColor=none;align=center;verticalAlign=middle;whiteSpace=wrap;rounded=0;" vertex="1" parent="1">
          <mxGeometry x="557" y="1682" width="60" height="30" as="geometry" />
        </mxCell>
        <mxCell id="msnr6ykoKoOmKQzoYFZ8-18" value="ptr" style="text;html=1;strokeColor=none;fillColor=none;align=center;verticalAlign=middle;whiteSpace=wrap;rounded=0;" vertex="1" parent="1">
          <mxGeometry x="560" y="1716" width="60" height="30" as="geometry" />
        </mxCell>
        <mxCell id="msnr6ykoKoOmKQzoYFZ8-19" value="SDS" style="rounded=0;whiteSpace=wrap;html=1;" vertex="1" parent="1">
          <mxGeometry x="689" y="1717.5" width="80" height="27" as="geometry" />
        </mxCell>
        <mxCell id="msnr6ykoKoOmKQzoYFZ8-21" value="元数据" style="rounded=0;whiteSpace=wrap;html=1;" vertex="1" parent="1">
          <mxGeometry x="846" y="1698" width="97" height="33" as="geometry" />
        </mxCell>
        <mxCell id="msnr6ykoKoOmKQzoYFZ8-22" value="ptr" style="rounded=0;whiteSpace=wrap;html=1;" vertex="1" parent="1">
          <mxGeometry x="941.5" y="1698" width="97" height="33" as="geometry" />
        </mxCell>
        <mxCell id="msnr6ykoKoOmKQzoYFZ8-23" value="SDS" style="rounded=0;whiteSpace=wrap;html=1;" vertex="1" parent="1">
          <mxGeometry x="1038.5" y="1698" width="97" height="33" as="geometry" />
        </mxCell>
        <mxCell id="msnr6ykoKoOmKQzoYFZ8-30" style="edgeStyle=orthogonalEdgeStyle;rounded=0;orthogonalLoop=1;jettySize=auto;html=1;entryX=0;entryY=0.5;entryDx=0;entryDy=0;" edge="1" parent="1" source="msnr6ykoKoOmKQzoYFZ8-24" target="msnr6ykoKoOmKQzoYFZ8-27">
          <mxGeometry relative="1" as="geometry" />
        </mxCell>
        <mxCell id="msnr6ykoKoOmKQzoYFZ8-24" value="*key(8B)" style="rounded=0;whiteSpace=wrap;html=1;" vertex="1" parent="1">
          <mxGeometry x="104" y="1895" width="88" height="31" as="geometry" />
        </mxCell>
        <mxCell id="msnr6ykoKoOmKQzoYFZ8-31" style="edgeStyle=orthogonalEdgeStyle;rounded=0;orthogonalLoop=1;jettySize=auto;html=1;" edge="1" parent="1" source="msnr6ykoKoOmKQzoYFZ8-25" target="msnr6ykoKoOmKQzoYFZ8-29">
          <mxGeometry relative="1" as="geometry" />
        </mxCell>
        <mxCell id="msnr6ykoKoOmKQzoYFZ8-25" value="*value(8B)" style="rounded=0;whiteSpace=wrap;html=1;" vertex="1" parent="1">
          <mxGeometry x="104" y="1926" width="88" height="31" as="geometry" />
        </mxCell>
        <mxCell id="msnr6ykoKoOmKQzoYFZ8-26" value="*next(8B)" style="rounded=0;whiteSpace=wrap;html=1;" vertex="1" parent="1">
          <mxGeometry x="104" y="1957" width="88" height="31" as="geometry" />
        </mxCell>
        <mxCell id="msnr6ykoKoOmKQzoYFZ8-27" value="RedisObject&lt;br&gt;(16B)" style="rounded=0;whiteSpace=wrap;html=1;fillColor=#fff2cc;strokeColor=#d6b656;" vertex="1" parent="1">
          <mxGeometry x="250" y="1866" width="118" height="44" as="geometry" />
        </mxCell>
        <mxCell id="msnr6ykoKoOmKQzoYFZ8-29" value="RedisObject&lt;br&gt;(16B)" style="rounded=0;whiteSpace=wrap;html=1;fillColor=#fff2cc;strokeColor=#d6b656;" vertex="1" parent="1">
          <mxGeometry x="250" y="1938" width="118" height="44" as="geometry" />
        </mxCell>
        <mxCell id="msnr6ykoKoOmKQzoYFZ8-33" value="key" style="text;html=1;strokeColor=none;fillColor=none;align=center;verticalAlign=middle;whiteSpace=wrap;rounded=0;" vertex="1" parent="1">
          <mxGeometry x="360" y="1873" width="60" height="30" as="geometry" />
        </mxCell>
        <mxCell id="msnr6ykoKoOmKQzoYFZ8-34" value="value" style="text;html=1;strokeColor=none;fillColor=none;align=center;verticalAlign=middle;whiteSpace=wrap;rounded=0;" vertex="1" parent="1">
          <mxGeometry x="365" y="1947" width="60" height="30" as="geometry" />
        </mxCell>
      </root>
    </mxGraphModel>
  </diagram>
</mxfile>
